<svg width="15" height="15" viewBox="0 0 15 15" fill="none" xmlns="http://www.w3.org/2000/svg">
<g clip-path="url(#clip0_1_112)">
<path d="M4.0875 3.125C4.125 3.68125 4.21875 4.225 4.36875 4.74375L3.61875 5.49375C3.3625 4.74375 3.2 3.95 3.14375 3.125H4.0875ZM10.25 10.6375C10.7812 10.7875 11.325 10.8812 11.875 10.9187V11.85C11.05 11.7937 10.2563 11.6312 9.5 11.3812L10.25 10.6375ZM4.6875 1.875H2.5C2.15625 1.875 1.875 2.15625 1.875 2.5C1.875 8.36875 6.63125 13.125 12.5 13.125C12.8438 13.125 13.125 12.8438 13.125 12.5V10.3188C13.125 9.975 12.8438 9.69375 12.5 9.69375C11.725 9.69375 10.9688 9.56875 10.2688 9.3375C10.2063 9.3125 10.1375 9.30625 10.075 9.30625C9.9125 9.30625 9.75625 9.36875 9.63125 9.4875L8.25625 10.8625C6.4875 9.95625 5.0375 8.5125 4.1375 6.74375L5.5125 5.36875C5.6875 5.19375 5.7375 4.95 5.66875 4.73125C5.4375 4.03125 5.3125 3.28125 5.3125 2.5C5.3125 2.15625 5.03125 1.875 4.6875 1.875Z" fill="black"/>
</g>
<defs>
<clipPath id="clip0_1_112">
<rect width="15" height="15" fill="white"/>
</clipPath>
</defs>
</svg>
