<svg width="15" height="15" viewBox="0 0 15 15" fill="none" xmlns="http://www.w3.org/2000/svg">
<g clip-path="url(#clip0_1_107)">
<path d="M7.5 7.5C6.8125 7.5 6.25 6.9375 6.25 6.25C6.25 5.5625 6.8125 5 7.5 5C8.1875 5 8.75 5.5625 8.75 6.25C8.75 6.9375 8.1875 7.5 7.5 7.5ZM11.25 6.375C11.25 4.10625 9.59375 2.5 7.5 2.5C5.40625 2.5 3.75 4.10625 3.75 6.375C3.75 7.8375 4.96875 9.775 7.5 12.0875C10.0312 9.775 11.25 7.8375 11.25 6.375ZM7.5 1.25C10.125 1.25 12.5 3.2625 12.5 6.375C12.5 8.45 10.8313 10.9062 7.5 13.75C4.16875 10.9062 2.5 8.45 2.5 6.375C2.5 3.2625 4.875 1.25 7.5 1.25Z" fill="black"/>
</g>
<defs>
<clipPath id="clip0_1_107">
<rect width="15" height="15" fill="white"/>
</clipPath>
</defs>
</svg>
